{
	"asset":{
		"generator":"Khronos glTF Blender I/O v4.0.44",
		"version":"2.0"
	},
	"scene":0,
	"scenes":[
		{
			"name":"Scene",
			"nodes":[
				0,
				1
			]
		}
	],
	"nodes":[
		{
			"mesh":0,
			"name":"Cylinder",
			"translation":[
				0,
				1.0041860342025757,
				0
			]
		},
		{
			"mesh":1,
			"name":"Bottle",
			"translation":[
				5.831777572631836,
				1.0039448738098145,
				-0.002025604248046875
			]
		}
	],
	"materials":[
		{
			"doubleSided":true,
			"name":"Material.001",
			"pbrMetallicRoughness":{
				"baseColorFactor":[
					0.03324258327484131,
					0.35908594727516174,
					0.8003778457641602,
					1
				],
				"metallicFactor":0,
				"roughnessFactor":0.5
			}
		},
		{
			"doubleSided":true,
			"name":"Material.002",
			"pbrMetallicRoughness":{
				"baseColorFactor":[
					0.3632027208805084,
					0.7422826886177063,
					0.800070583820343,
					1
				],
				"metallicFactor":0,
				"roughnessFactor":0.5
			}
		},
		{
			"doubleSided":true,
			"name":"Material.003",
			"pbrMetallicRoughness":{
				"baseColorFactor":[
					0.026320241391658783,
					0.41450631618499756,
					0.8000229597091675,
					1
				],
				"metallicFactor":0,
				"roughnessFactor":0.5
			}
		},
		{
			"doubleSided":true,
			"name":"Material.004",
			"pbrMetallicRoughness":{
				"baseColorFactor":[
					0.35924792289733887,
					0.7047528624534607,
					0.8000156879425049,
					1
				],
				"metallicFactor":0,
				"roughnessFactor":0.5
			}
		}
	],
	"meshes":[
		{
			"name":"Cylinder",
			"primitives":[
				{
					"attributes":{
						"POSITION":0,
						"NORMAL":1,
						"TEXCOORD_0":2
					},
					"indices":3,
					"material":0
				},
				{
					"attributes":{
						"POSITION":4,
						"NORMAL":5,
						"TEXCOORD_0":6
					},
					"indices":7,
					"material":1
				}
			]
		},
		{
			"name":"Cylinder.001",
			"primitives":[
				{
					"attributes":{
						"POSITION":8,
						"NORMAL":9,
						"TEXCOORD_0":10
					},
					"indices":11,
					"material":2
				},
				{
					"attributes":{
						"POSITION":12,
						"NORMAL":13,
						"TEXCOORD_0":14
					},
					"indices":15,
					"material":3
				}
			]
		}
	],
	"accessors":[
		{
			"bufferView":0,
			"componentType":5126,
			"count":480,
			"max":[
				0.8698297739028931,
				3.513373851776123,
				0.8053287863731384
			],
			"min":[
				-0.8275508880615234,
				0.03968077898025513,
				-0.7153608798980713
			],
			"type":"VEC3"
		},
		{
			"bufferView":1,
			"componentType":5126,
			"count":480,
			"type":"VEC3"
		},
		{
			"bufferView":2,
			"componentType":5126,
			"count":480,
			"type":"VEC2"
		},
		{
			"bufferView":3,
			"componentType":5123,
			"count":750,
			"type":"SCALAR"
		},
		{
			"bufferView":4,
			"componentType":5126,
			"count":562,
			"max":[
				0.8698297739028931,
				3.2535295486450195,
				0.9411901235580444
			],
			"min":[
				-0.9788228273391724,
				-1.0525022745132446,
				-0.8024755120277405
			],
			"type":"VEC3"
		},
		{
			"bufferView":5,
			"componentType":5126,
			"count":562,
			"type":"VEC3"
		},
		{
			"bufferView":6,
			"componentType":5126,
			"count":562,
			"type":"VEC2"
		},
		{
			"bufferView":7,
			"componentType":5123,
			"count":726,
			"type":"SCALAR"
		},
		{
			"bufferView":8,
			"componentType":5126,
			"count":163,
			"max":[
				0.6868288516998291,
				3.0082597732543945,
				0.5905883312225342
			],
			"min":[
				-0.667509913444519,
				0.6768527030944824,
				-0.4833873510360718
			],
			"type":"VEC3"
		},
		{
			"bufferView":9,
			"componentType":5126,
			"count":163,
			"type":"VEC3"
		},
		{
			"bufferView":10,
			"componentType":5126,
			"count":163,
			"type":"VEC2"
		},
		{
			"bufferView":11,
			"componentType":5123,
			"count":249,
			"type":"SCALAR"
		},
		{
			"bufferView":12,
			"componentType":5126,
			"count":323,
			"max":[
				0.7144650220870972,
				2.751945972442627,
				0.7549740076065063
			],
			"min":[
				-0.6947252750396729,
				-0.6195517778396606,
				-0.7279616594314575
			],
			"type":"VEC3"
		},
		{
			"bufferView":13,
			"componentType":5126,
			"count":323,
			"type":"VEC3"
		},
		{
			"bufferView":14,
			"componentType":5126,
			"count":323,
			"type":"VEC2"
		},
		{
			"bufferView":15,
			"componentType":5123,
			"count":483,
			"type":"SCALAR"
		}
	],
	"bufferViews":[
		{
			"buffer":0,
			"byteLength":5760,
			"byteOffset":0,
			"target":34962
		},
		{
			"buffer":0,
			"byteLength":5760,
			"byteOffset":5760,
			"target":34962
		},
		{
			"buffer":0,
			"byteLength":3840,
			"byteOffset":11520,
			"target":34962
		},
		{
			"buffer":0,
			"byteLength":1500,
			"byteOffset":15360,
			"target":34963
		},
		{
			"buffer":0,
			"byteLength":6744,
			"byteOffset":16860,
			"target":34962
		},
		{
			"buffer":0,
			"byteLength":6744,
			"byteOffset":23604,
			"target":34962
		},
		{
			"buffer":0,
			"byteLength":4496,
			"byteOffset":30348,
			"target":34962
		},
		{
			"buffer":0,
			"byteLength":1452,
			"byteOffset":34844,
			"target":34963
		},
		{
			"buffer":0,
			"byteLength":1956,
			"byteOffset":36296,
			"target":34962
		},
		{
			"buffer":0,
			"byteLength":1956,
			"byteOffset":38252,
			"target":34962
		},
		{
			"buffer":0,
			"byteLength":1304,
			"byteOffset":40208,
			"target":34962
		},
		{
			"buffer":0,
			"byteLength":498,
			"byteOffset":41512,
			"target":34963
		},
		{
			"buffer":0,
			"byteLength":3876,
			"byteOffset":42012,
			"target":34962
		},
		{
			"buffer":0,
			"byteLength":3876,
			"byteOffset":45888,
			"target":34962
		},
		{
			"buffer":0,
			"byteLength":2584,
			"byteOffset":49764,
			"target":34962
		},
		{
			"buffer":0,
			"byteLength":966,
			"byteOffset":52348,
			"target":34963
		}
	],
	"buffers":[
		{
			"byteLength":53316,
			"uri":"bottle.bin"
		}
	]
}
