{
  "asset": {
    "version": "2.0",
    "generator": "THREE.GLTFExporter"
  },
  "scenes": [
    {
      "name": "Scene",
      "nodes": [
        2,
        5,
        7,
        9,
        11,
        12,
        14,
        15,
        17,
        18,
        20,
        22,
        26
      ]
    }
  ],
  "scene": 0,
  "nodes": [
    {
      "matrix": [
        1,
        0,
        0,
        0,
        0,
        1,
        0,
        0,
        0,
        0,
        1,
        0,
        0,
        1.0041860342025757,
        0,
        1
      ],
      "name": "Cylinder",
      "extras": {
        "name": "Cylinder"
      }
    },
    {
      "matrix": [
        1,
        0,
        0,
        0,
        0,
        1,
        0,
        0,
        0,
        0,
        1,
        0,
        5.831777572631836,
        1.0039448738098145,
        -0.002025604248046875,
        1
      ],
      "name": "Bottle",
      "extras": {
        "name": "Bottle"
      }
    },
    {
      "name": "bottle.glb",
      "children": [
        0,
        1
      ]
    },
    {
      "matrix": [
        1,
        0,
        0,
        0,
        0,
        1,
        0,
        0,
        0,
        0,
        1,
        0,
        0,
        1.0041860342025757,
        0,
        1
      ],
      "name": "Cylinder",
      "extras": {
        "name": "Cylinder"
      }
    },
    {
      "matrix": [
        1,
        0,
        0,
        0,
        0,
        1,
        0,
        0,
        0,
        0,
        1,
        0,
        5.831777572631836,
        1.0039448738098145,
        -0.002025604248046875,
        1
      ],
      "name": "Bottle",
      "extras": {
        "name": "Bottle"
      }
    },
    {
      "name": "bottle.glb",
      "children": [
        3,
        4
      ]
    },
    {
      "matrix": [
        1,
        0,
        0,
        0,
        0,
        1,
        0,
        0,
        0,
        0,
        1,
        0,
        5.831777572631836,
        1.0039448738098145,
        -0.002025604248046875,
        1
      ],
      "name": "Bottle",
      "extras": {
        "name": "Bottle"
      }
    },
    {
      "name": "bottle.glb",
      "children": [
        6
      ]
    },
    {
      "matrix": [
        1,
        0,
        0,
        0,
        0,
        1,
        0,
        0,
        0,
        0,
        1,
        0,
        5.831777572631836,
        1.0039448738098145,
        -0.002025604248046875,
        1
      ],
      "name": "Bottle",
      "extras": {
        "name": "Bottle"
      }
    },
    {
      "name": "bottle.glb",
      "children": [
        8
      ]
    },
    {
      "matrix": [
        1,
        0,
        0,
        0,
        0,
        1,
        0,
        0,
        0,
        0,
        1,
        0,
        0.002716541290283203,
        0.6662095785140991,
        -0.002025604248046875,
        1
      ],
      "name": "Bottle",
      "extras": {
        "name": "Bottle"
      }
    },
    {
      "name": "bottle.glb",
      "children": [
        10
      ]
    },
    {
      "name": "plastic_bag.glb"
    },
    {
      "matrix": [
        0.7026515007019043,
        0,
        0,
        0,
        0,
        0.7026515007019043,
        0,
        0,
        0,
        0,
        0.7026515007019043,
        0,
        -0.32183247804641724,
        0.409595251083374,
        0.36707139015197754,
        1
      ],
      "name": "wine",
      "extras": {
        "name": "wine"
      }
    },
    {
      "name": "wine.glb",
      "children": [
        13
      ]
    },
    {
      "name": "tube.glb"
    },
    {
      "matrix": [
        0.35191524028778076,
        0,
        0,
        0,
        0,
        -0.0054941391674231095,
        -0.35187236612342204,
        0,
        0,
        0.35187236612342204,
        -0.0054941391674231095,
        0,
        0,
        0.24142417311668396,
        0.019579727202653885,
        1
      ],
      "name": "spray",
      "extras": {
        "name": "spray"
      }
    },
    {
      "name": "spray.glb",
      "children": [
        16
      ]
    },
    {
      "name": "net.glb"
    },
    {
      "matrix": [
        1,
        0,
        0,
        0,
        0,
        -1.3435885648505064e-7,
        1.0000001343588565,
        0,
        0,
        -1.0000001343588565,
        -1.3435885648505064e-7,
        0,
        -0.05562358349561691,
        0.29975342750549316,
        0.080144003033638,
        1
      ],
      "name": "can",
      "extras": {
        "name": "can"
      }
    },
    {
      "name": "can.glb",
      "children": [
        19
      ]
    },
    {
      "matrix": [
        1,
        0,
        0,
        0,
        0,
        1,
        0,
        0,
        0,
        0,
        1,
        0,
        -0.11262078583240509,
        0.08779525756835938,
        -0.07801923900842667,
        1
      ],
      "name": "banana",
      "extras": {
        "name": "banana"
      }
    },
    {
      "name": "banana.glb",
      "children": [
        21
      ]
    },
    {
      "name": "Cylinder001",
      "mesh": 0
    },
    {
      "name": "Cylinder001_1",
      "mesh": 1
    },
    {
      "matrix": [
        1,
        0,
        0,
        0,
        0,
        -0.059429615150413895,
        0.9982325936027081,
        0,
        0,
        -0.9982325936027081,
        -0.059429615150413895,
        0,
        0.002716541290283203,
        0.6662095785140991,
        -0.919805645942688,
        1
      ],
      "name": "bottle",
      "extras": {
        "name": "bottle"
      },
      "children": [
        23,
        24
      ]
    },
    {
      "name": "bottle.glb",
      "children": [
        25
      ]
    }
  ],
  "bufferViews": [
    {
      "buffer": 0,
      "byteOffset": 0,
      "byteLength": 1956,
      "target": 34962,
      "byteStride": 12
    },
    {
      "buffer": 0,
      "byteOffset": 1956,
      "byteLength": 1956,
      "target": 34962,
      "byteStride": 12
    },
    {
      "buffer": 0,
      "byteOffset": 3912,
      "byteLength": 1304,
      "target": 34962,
      "byteStride": 8
    },
    {
      "buffer": 0,
      "byteOffset": 5216,
      "byteLength": 500,
      "target": 34963
    },
    {
      "buffer": 0,
      "byteOffset": 5716,
      "byteLength": 3876,
      "target": 34962,
      "byteStride": 12
    },
    {
      "buffer": 0,
      "byteOffset": 9592,
      "byteLength": 3876,
      "target": 34962,
      "byteStride": 12
    },
    {
      "buffer": 0,
      "byteOffset": 13468,
      "byteLength": 2584,
      "target": 34962,
      "byteStride": 8
    },
    {
      "buffer": 0,
      "byteOffset": 16052,
      "byteLength": 968,
      "target": 34963
    }
  ],
  "buffers": [
    {
      "byteLength": 17020,
      "uri": "data:application/octet-stream;base64,"
    }
  ],
  "accessors": [
    {
      "bufferView": 0,
      "componentType": 5126,
      "count": 163,
      "max": [
        0.6868288516998291,
        3.0082597732543945,
        0.5905883312225342
      ],
      "min": [
        -0.667509913444519,
        0.6768527030944824,
        -0.4833873510360718
      ],
      "type": "VEC3"
    },
    {
      "bufferView": 1,
      "componentType": 5126,
      "count": 163,
      "max": [
        1,
        1,
        0.9800466895103455
      ],
      "min": [
        -0.9997544884681702,
        -0.987779974937439,
        -0.9949232339859009
      ],
      "type": "VEC3"
    },
    {
      "bufferView": 2,
      "componentType": 5126,
      "count": 163,
      "max": [
        1,
        0.9900000095367432
      ],
      "min": [
        -7.450580596923828e-8,
        0
      ],
      "type": "VEC2"
    },
    {
      "bufferView": 3,
      "componentType": 5123,
      "count": 249,
      "max": [
        162
      ],
      "min": [
        0
      ],
      "type": "SCALAR"
    },
    {
      "bufferView": 4,
      "componentType": 5126,
      "count": 323,
      "max": [
        0.7144650220870972,
        2.751945972442627,
        0.7549740076065063
      ],
      "min": [
        -0.6947252750396729,
        -0.6195517778396606,
        -0.7279616594314575
      ],
      "type": "VEC3"
    },
    {
      "bufferView": 5,
      "componentType": 5126,
      "count": 323,
      "max": [
        0.9939398169517517,
        0.5374836325645447,
        0.9675507545471191
      ],
      "min": [
        -0.9943573474884033,
        -0.9980721473693848,
        -0.9682005047798157
      ],
      "type": "VEC3"
    },
    {
      "bufferView": 6,
      "componentType": 5126,
      "count": 323,
      "max": [
        1,
        0.9900000095367432
      ],
      "min": [
        -7.450580596923828e-8,
        0
      ],
      "type": "VEC2"
    },
    {
      "bufferView": 7,
      "componentType": 5123,
      "count": 483,
      "max": [
        322
      ],
      "min": [
        0
      ],
      "type": "SCALAR"
    }
  ],
  "materials": [
    {
      "pbrMetallicRoughness": {
        "baseColorFactor": [
          0.026320241391658783,
          0.41450631618499756,
          0.8000229597091675,
          1
        ],
        "metallicFactor": 0,
        "roughnessFactor": 0.5
      },
      "doubleSided": true,
      "name": "Material.003"
    },
    {
      "pbrMetallicRoughness": {
        "baseColorFactor": [
          0.35924792289733887,
          0.7047528624534607,
          0.8000156879425049,
          1
        ],
        "metallicFactor": 0,
        "roughnessFactor": 0.5
      },
      "doubleSided": true,
      "name": "Material.004"
    }
  ],
  "meshes": [
    {
      "primitives": [
        {
          "mode": 4,
          "attributes": {
            "POSITION": 0,
            "NORMAL": 1,
            "TEXCOORD_0": 2
          },
          "indices": 3,
          "material": 0
        }
      ]
    },
    {
      "primitives": [
        {
          "mode": 4,
          "attributes": {
            "POSITION": 4,
            "NORMAL": 5,
            "TEXCOORD_0": 6
          },
          "indices": 7,
          "material": 1
        }
      ]
    }
  ]
}