{
  "asset": {
    "version": "2.0",
    "generator": "THREE.GLTFExporter"
  },
  "scenes": [
    {
      "name": "Scene",
      "nodes": [
        2,
        5,
        7,
        9,
        11,
        12,
        14,
        15,
        17,
        18,
        20,
        22,
        24,
        28
      ]
    }
  ],
  "scene": 0,
  "nodes": [
    {
      "matrix": [
        1,
        0,
        0,
        0,
        0,
        1,
        0,
        0,
        0,
        0,
        1,
        0,
        0,
        1.0041860342025757,
        0,
        1
      ],
      "name": "Cylinder",
      "extras": {
        "name": "Cylinder"
      }
    },
    {
      "matrix": [
        1,
        0,
        0,
        0,
        0,
        1,
        0,
        0,
        0,
        0,
        1,
        0,
        5.831777572631836,
        1.0039448738098145,
        -0.002025604248046875,
        1
      ],
      "name": "Bottle",
      "extras": {
        "name": "Bottle"
      }
    },
    {
      "name": "bottle.glb",
      "children": [
        0,
        1
      ]
    },
    {
      "matrix": [
        1,
        0,
        0,
        0,
        0,
        1,
        0,
        0,
        0,
        0,
        1,
        0,
        0,
        1.0041860342025757,
        0,
        1
      ],
      "name": "Cylinder",
      "extras": {
        "name": "Cylinder"
      }
    },
    {
      "matrix": [
        1,
        0,
        0,
        0,
        0,
        1,
        0,
        0,
        0,
        0,
        1,
        0,
        5.831777572631836,
        1.0039448738098145,
        -0.002025604248046875,
        1
      ],
      "name": "Bottle",
      "extras": {
        "name": "Bottle"
      }
    },
    {
      "name": "bottle.glb",
      "children": [
        3,
        4
      ]
    },
    {
      "matrix": [
        1,
        0,
        0,
        0,
        0,
        1,
        0,
        0,
        0,
        0,
        1,
        0,
        5.831777572631836,
        1.0039448738098145,
        -0.002025604248046875,
        1
      ],
      "name": "Bottle",
      "extras": {
        "name": "Bottle"
      }
    },
    {
      "name": "bottle.glb",
      "children": [
        6
      ]
    },
    {
      "matrix": [
        1,
        0,
        0,
        0,
        0,
        1,
        0,
        0,
        0,
        0,
        1,
        0,
        5.831777572631836,
        1.0039448738098145,
        -0.002025604248046875,
        1
      ],
      "name": "Bottle",
      "extras": {
        "name": "Bottle"
      }
    },
    {
      "name": "bottle.glb",
      "children": [
        8
      ]
    },
    {
      "matrix": [
        1,
        0,
        0,
        0,
        0,
        1,
        0,
        0,
        0,
        0,
        1,
        0,
        0.002716541290283203,
        0.6662095785140991,
        -0.002025604248046875,
        1
      ],
      "name": "Bottle",
      "extras": {
        "name": "Bottle"
      }
    },
    {
      "name": "bottle.glb",
      "children": [
        10
      ]
    },
    {
      "name": "plastic_bag.glb"
    },
    {
      "matrix": [
        0.7026515007019043,
        0,
        0,
        0,
        0,
        0.7026515007019043,
        0,
        0,
        0,
        0,
        0.7026515007019043,
        0,
        -0.32183247804641724,
        0.409595251083374,
        0.36707139015197754,
        1
      ],
      "name": "wine",
      "extras": {
        "name": "wine"
      }
    },
    {
      "name": "wine.glb",
      "children": [
        13
      ]
    },
    {
      "name": "tube.glb"
    },
    {
      "matrix": [
        0.35191524028778076,
        0,
        0,
        0,
        0,
        -0.005494139167423095,
        -0.35187236612342204,
        0,
        0,
        0.35187236612342204,
        -0.005494139167423095,
        0,
        0,
        0.24142417311668396,
        0.019579727202653885,
        1
      ],
      "name": "spray",
      "extras": {
        "name": "spray"
      }
    },
    {
      "name": "spray.glb",
      "children": [
        16
      ]
    },
    {
      "name": "net.glb"
    },
    {
      "matrix": [
        1,
        0,
        0,
        0,
        0,
        -1.3435885655173873e-7,
        1.0000001343588565,
        0,
        0,
        -1.0000001343588565,
        -1.3435885655173873e-7,
        0,
        -0.05562358349561691,
        0.29975342750549316,
        0.080144003033638,
        1
      ],
      "name": "can",
      "extras": {
        "name": "can"
      }
    },
    {
      "name": "can.glb",
      "children": [
        19
      ]
    },
    {
      "matrix": [
        1,
        0,
        0,
        0,
        0,
        1,
        0,
        0,
        0,
        0,
        1,
        0,
        -0.11262078583240509,
        0.08779525756835938,
        -0.07801923900842667,
        1
      ],
      "name": "banana",
      "extras": {
        "name": "banana"
      }
    },
    {
      "name": "banana.glb",
      "children": [
        21
      ]
    },
    {
      "matrix": [
        1,
        0,
        0,
        0,
        0,
        -0.05942961515041413,
        0.998232593602708,
        0,
        0,
        -0.998232593602708,
        -0.05942961515041413,
        0,
        0.002716541290283203,
        0.6662095785140991,
        -0.919805645942688,
        1
      ],
      "name": "bottle",
      "extras": {
        "name": "bottle"
      }
    },
    {
      "name": "bottle.glb",
      "children": [
        23
      ]
    },
    {
      "name": "Cube001",
      "mesh": 0
    },
    {
      "name": "Cube001_1",
      "mesh": 1
    },
    {
      "matrix": [
        0.14414572715759277,
        0,
        0,
        0,
        0,
        0.14414572715759277,
        0,
        0,
        0,
        0,
        0.14414572715759277,
        0,
        0,
        0,
        0,
        1
      ],
      "name": "brush",
      "extras": {
        "name": "brush"
      },
      "children": [
        25,
        26
      ]
    },
    {
      "name": "brush.glb",
      "children": [
        27
      ]
    }
  ],
  "bufferViews": [
    {
      "buffer": 0,
      "byteOffset": 0,
      "byteLength": 1320,
      "target": 34962,
      "byteStride": 12
    },
    {
      "buffer": 0,
      "byteOffset": 1320,
      "byteLength": 1320,
      "target": 34962,
      "byteStride": 12
    },
    {
      "buffer": 0,
      "byteOffset": 2640,
      "byteLength": 880,
      "target": 34962,
      "byteStride": 8
    },
    {
      "buffer": 0,
      "byteOffset": 3520,
      "byteLength": 408,
      "target": 34963
    },
    {
      "buffer": 0,
      "byteOffset": 3928,
      "byteLength": 384,
      "target": 34962,
      "byteStride": 12
    },
    {
      "buffer": 0,
      "byteOffset": 4312,
      "byteLength": 384,
      "target": 34962,
      "byteStride": 12
    },
    {
      "buffer": 0,
      "byteOffset": 4696,
      "byteLength": 256,
      "target": 34962,
      "byteStride": 8
    },
    {
      "buffer": 0,
      "byteOffset": 4952,
      "byteLength": 96,
      "target": 34963
    }
  ],
  "buffers": [
    {
      "byteLength": 5048,
      "uri": "data:application/octet-stream;base64,"
    }
  ],
  "accessors": [
    {
      "bufferView": 0,
      "componentType": 5126,
      "count": 110,
      "max": [
        9.6207275390625,
        1.182614803314209,
        1.163972020149231
      ],
      "min": [
        -9.873435974121094,
        -0.11272958666086197,
        -1.3257564306259155
      ],
      "type": "VEC3"
    },
    {
      "bufferView": 1,
      "componentType": 5126,
      "count": 110,
      "max": [
        0.9999549388885498,
        0.9999046325683594,
        0.9999343156814575
      ],
      "min": [
        -0.9999537467956543,
        -0.9999997615814209,
        -0.9999706745147705
      ],
      "type": "VEC3"
    },
    {
      "bufferView": 2,
      "componentType": 5126,
      "count": 110,
      "max": [
        0.6250000596046448,
        1
      ],
      "min": [
        0.125,
        0
      ],
      "type": "VEC2"
    },
    {
      "bufferView": 3,
      "componentType": 5123,
      "count": 204,
      "max": [
        109
      ],
      "min": [
        0
      ],
      "type": "SCALAR"
    },
    {
      "bufferView": 4,
      "componentType": 5126,
      "count": 32,
      "max": [
        -5.846834182739258,
        1.985471487045288,
        0.9974094033241272
      ],
      "min": [
        -9.871149063110352,
        0.4382840394973755,
        -1.0854130983352661
      ],
      "type": "VEC3"
    },
    {
      "bufferView": 5,
      "componentType": 5126,
      "count": 32,
      "max": [
        0.9937067031860352,
        0.9999087452888489,
        0.9998383522033691
      ],
      "min": [
        -0.9897524118423462,
        -0.02120065689086914,
        -0.9997310638427734
      ],
      "type": "VEC3"
    },
    {
      "bufferView": 6,
      "componentType": 5126,
      "count": 32,
      "max": [
        0.875,
        1
      ],
      "min": [
        0.4401645064353943,
        0
      ],
      "type": "VEC2"
    },
    {
      "bufferView": 7,
      "componentType": 5123,
      "count": 48,
      "max": [
        31
      ],
      "min": [
        0
      ],
      "type": "SCALAR"
    }
  ],
  "materials": [
    {
      "pbrMetallicRoughness": {
        "baseColorFactor": [
          0.4567186236381531,
          0.8005450963973999,
          0.23818626999855042,
          1
        ],
        "metallicFactor": 0,
        "roughnessFactor": 0.5
      },
      "doubleSided": true,
      "name": "Material"
    },
    {
      "pbrMetallicRoughness": {
        "baseColorFactor": [
          0.6824512481689453,
          0.8000074625015259,
          0.6086361408233643,
          1
        ],
        "metallicFactor": 0,
        "roughnessFactor": 0.5
      },
      "doubleSided": true,
      "name": "Material.016"
    }
  ],
  "meshes": [
    {
      "primitives": [
        {
          "mode": 4,
          "attributes": {
            "POSITION": 0,
            "NORMAL": 1,
            "TEXCOORD_0": 2
          },
          "indices": 3,
          "material": 0
        }
      ]
    },
    {
      "primitives": [
        {
          "mode": 4,
          "attributes": {
            "POSITION": 4,
            "NORMAL": 5,
            "TEXCOORD_0": 6
          },
          "indices": 7,
          "material": 1
        }
      ]
    }
  ]
}