{
  "asset": {
    "version": "2.0",
    "generator": "THREE.GLTFExporter"
  },
  "scenes": [
    {
      "name": "Scene",
      "nodes": [
        2,
        5,
        7,
        9,
        11,
        12,
        14,
        15,
        17,
        18,
        20,
        22,
        24,
        26,
        27,
        28,
        29,
        31
      ]
    }
  ],
  "scene": 0,
  "nodes": [
    {
      "matrix": [
        1,
        0,
        0,
        0,
        0,
        1,
        0,
        0,
        0,
        0,
        1,
        0,
        0,
        1.0041860342025757,
        0,
        1
      ],
      "name": "Cylinder",
      "extras": {
        "name": "Cylinder"
      }
    },
    {
      "matrix": [
        1,
        0,
        0,
        0,
        0,
        1,
        0,
        0,
        0,
        0,
        1,
        0,
        5.831777572631836,
        1.0039448738098145,
        -0.002025604248046875,
        1
      ],
      "name": "Bottle",
      "extras": {
        "name": "Bottle"
      }
    },
    {
      "name": "bottle.glb",
      "children": [
        0,
        1
      ]
    },
    {
      "matrix": [
        1,
        0,
        0,
        0,
        0,
        1,
        0,
        0,
        0,
        0,
        1,
        0,
        0,
        1.0041860342025757,
        0,
        1
      ],
      "name": "Cylinder",
      "extras": {
        "name": "Cylinder"
      }
    },
    {
      "matrix": [
        1,
        0,
        0,
        0,
        0,
        1,
        0,
        0,
        0,
        0,
        1,
        0,
        5.831777572631836,
        1.0039448738098145,
        -0.002025604248046875,
        1
      ],
      "name": "Bottle",
      "extras": {
        "name": "Bottle"
      }
    },
    {
      "name": "bottle.glb",
      "children": [
        3,
        4
      ]
    },
    {
      "matrix": [
        1,
        0,
        0,
        0,
        0,
        1,
        0,
        0,
        0,
        0,
        1,
        0,
        5.831777572631836,
        1.0039448738098145,
        -0.002025604248046875,
        1
      ],
      "name": "Bottle",
      "extras": {
        "name": "Bottle"
      }
    },
    {
      "name": "bottle.glb",
      "children": [
        6
      ]
    },
    {
      "matrix": [
        1,
        0,
        0,
        0,
        0,
        1,
        0,
        0,
        0,
        0,
        1,
        0,
        5.831777572631836,
        1.0039448738098145,
        -0.002025604248046875,
        1
      ],
      "name": "Bottle",
      "extras": {
        "name": "Bottle"
      }
    },
    {
      "name": "bottle.glb",
      "children": [
        8
      ]
    },
    {
      "matrix": [
        1,
        0,
        0,
        0,
        0,
        1,
        0,
        0,
        0,
        0,
        1,
        0,
        0.002716541290283203,
        0.6662095785140991,
        -0.002025604248046875,
        1
      ],
      "name": "Bottle",
      "extras": {
        "name": "Bottle"
      }
    },
    {
      "name": "bottle.glb",
      "children": [
        10
      ]
    },
    {
      "name": "plastic_bag.glb"
    },
    {
      "matrix": [
        0.7026515007019043,
        0,
        0,
        0,
        0,
        0.7026515007019043,
        0,
        0,
        0,
        0,
        0.7026515007019043,
        0,
        -0.32183247804641724,
        0.409595251083374,
        0.36707139015197754,
        1
      ],
      "name": "wine",
      "extras": {
        "name": "wine"
      }
    },
    {
      "name": "wine.glb",
      "children": [
        13
      ]
    },
    {
      "name": "tube.glb"
    },
    {
      "matrix": [
        0.35191524028778076,
        0,
        0,
        0,
        0,
        -0.005494139167423095,
        -0.35187236612342204,
        0,
        0,
        0.35187236612342204,
        -0.005494139167423095,
        0,
        0,
        0.24142417311668396,
        0.019579727202653885,
        1
      ],
      "name": "spray",
      "extras": {
        "name": "spray"
      }
    },
    {
      "name": "spray.glb",
      "children": [
        16
      ]
    },
    {
      "name": "net.glb"
    },
    {
      "matrix": [
        1,
        0,
        0,
        0,
        0,
        -1.3435885655173873e-7,
        1.0000001343588565,
        0,
        0,
        -1.0000001343588565,
        -1.3435885655173873e-7,
        0,
        -0.05562358349561691,
        0.29975342750549316,
        0.080144003033638,
        1
      ],
      "name": "can",
      "extras": {
        "name": "can"
      }
    },
    {
      "name": "can.glb",
      "children": [
        19
      ]
    },
    {
      "matrix": [
        1,
        0,
        0,
        0,
        0,
        1,
        0,
        0,
        0,
        0,
        1,
        0,
        -0.11262078583240509,
        0.08779525756835938,
        -0.07801923900842667,
        1
      ],
      "name": "banana",
      "extras": {
        "name": "banana"
      }
    },
    {
      "name": "banana.glb",
      "children": [
        21
      ]
    },
    {
      "matrix": [
        1,
        0,
        0,
        0,
        0,
        -0.05942961515041413,
        0.9982325936027079,
        0,
        0,
        -0.9982325936027079,
        -0.05942961515041413,
        0,
        0.002716541290283203,
        0.6662095785140991,
        -0.919805645942688,
        1
      ],
      "name": "bottle",
      "extras": {
        "name": "bottle"
      }
    },
    {
      "name": "bottle.glb",
      "children": [
        23
      ]
    },
    {
      "matrix": [
        0.14414572715759277,
        0,
        0,
        0,
        0,
        0.14414572715759277,
        0,
        0,
        0,
        0,
        0.14414572715759277,
        0,
        0,
        0,
        0,
        1
      ],
      "name": "brush",
      "extras": {
        "name": "brush"
      }
    },
    {
      "name": "brush.glb",
      "children": [
        25
      ]
    },
    {
      "extras": {
        "unitScaleFactor": 1
      }
    },
    {
      "extras": {
        "unitScaleFactor": 1
      }
    },
    {
      "matrix": [
        1,
        0,
        0,
        0,
        0,
        1,
        0,
        0,
        0,
        0,
        1,
        0,
        0,
        0.05965204980409443,
        0,
        1
      ],
      "name": "ocean.glb"
    },
    {
      "matrix": [
        1,
        0,
        0,
        0,
        0,
        1,
        0,
        0,
        0,
        0,
        1,
        0,
        0,
        11.810985565185547,
        0,
        1
      ],
      "name": "Cube",
      "extras": {
        "name": "Cube"
      },
      "mesh": 0
    },
    {
      "name": "ocean.glb",
      "children": [
        30
      ]
    }
  ],
  "bufferViews": [
    {
      "buffer": 0,
      "byteOffset": 0,
      "byteLength": 212592,
      "target": 34962,
      "byteStride": 12
    },
    {
      "buffer": 0,
      "byteOffset": 212592,
      "byteLength": 212592,
      "target": 34962,
      "byteStride": 12
    },
    {
      "buffer": 0,
      "byteOffset": 425184,
      "byteLength": 141728,
      "target": 34962,
      "byteStride": 8
    },
    {
      "buffer": 0,
      "byteOffset": 566912,
      "byteLength": 57384,
      "target": 34963
    }
  ],
  "buffers": [
    {
      "byteLength": 624296,
      "uri": "data:application/octet-stream;base64,"
    }
  ],
  "accessors": [
    {
      "bufferView": 0,
      "componentType": 5126,
      "count": 17716,
      "max": [
        47.79076385498047,
        -8.388285636901855,
        47.464820861816406
      ],
      "min": [
        -48.69226837158203,
        -11.476897239685059,
        -47.53880310058594
      ],
      "type": "VEC3"
    },
    {
      "bufferView": 1,
      "componentType": 5126,
      "count": 17716,
      "max": [
        1,
        1,
        1
      ],
      "min": [
        -1,
        -1,
        -1
      ],
      "type": "VEC3"
    },
    {
      "bufferView": 2,
      "componentType": 5126,
      "count": 17716,
      "max": [
        0.875,
        1
      ],
      "min": [
        0.1249999850988388,
        0
      ],
      "type": "VEC2"
    },
    {
      "bufferView": 3,
      "componentType": 5123,
      "count": 28692,
      "max": [
        17715
      ],
      "min": [
        0
      ],
      "type": "SCALAR"
    }
  ],
  "materials": [
    {
      "pbrMetallicRoughness": {
        "baseColorFactor": [
          0.04896280914545059,
          0.05717352777719498,
          0.8002511262893677,
          1
        ],
        "metallicFactor": 0.08256880939006805,
        "roughnessFactor": 0.17889909446239471
      },
      "doubleSided": true,
      "name": "Material.001"
    }
  ],
  "meshes": [
    {
      "primitives": [
        {
          "mode": 4,
          "attributes": {
            "POSITION": 0,
            "NORMAL": 1,
            "TEXCOORD_0": 2
          },
          "indices": 3,
          "material": 0
        }
      ]
    }
  ]
}