{
  "asset": {
    "version": "2.0",
    "generator": "THREE.GLTFExporter"
  },
  "scenes": [
    {
      "name": "Scene",
      "nodes": [
        2,
        5,
        7,
        9,
        11,
        12,
        14,
        15,
        17,
        18,
        23
      ]
    }
  ],
  "scene": 0,
  "nodes": [
    {
      "matrix": [
        1,
        0,
        0,
        0,
        0,
        1,
        0,
        0,
        0,
        0,
        1,
        0,
        0,
        1.0041860342025757,
        0,
        1
      ],
      "name": "Cylinder",
      "extras": {
        "name": "Cylinder"
      }
    },
    {
      "matrix": [
        1,
        0,
        0,
        0,
        0,
        1,
        0,
        0,
        0,
        0,
        1,
        0,
        5.831777572631836,
        1.0039448738098145,
        -0.002025604248046875,
        1
      ],
      "name": "Bottle",
      "extras": {
        "name": "Bottle"
      }
    },
    {
      "name": "bottle.glb",
      "children": [
        0,
        1
      ]
    },
    {
      "matrix": [
        1,
        0,
        0,
        0,
        0,
        1,
        0,
        0,
        0,
        0,
        1,
        0,
        0,
        1.0041860342025757,
        0,
        1
      ],
      "name": "Cylinder",
      "extras": {
        "name": "Cylinder"
      }
    },
    {
      "matrix": [
        1,
        0,
        0,
        0,
        0,
        1,
        0,
        0,
        0,
        0,
        1,
        0,
        5.831777572631836,
        1.0039448738098145,
        -0.002025604248046875,
        1
      ],
      "name": "Bottle",
      "extras": {
        "name": "Bottle"
      }
    },
    {
      "name": "bottle.glb",
      "children": [
        3,
        4
      ]
    },
    {
      "matrix": [
        1,
        0,
        0,
        0,
        0,
        1,
        0,
        0,
        0,
        0,
        1,
        0,
        5.831777572631836,
        1.0039448738098145,
        -0.002025604248046875,
        1
      ],
      "name": "Bottle",
      "extras": {
        "name": "Bottle"
      }
    },
    {
      "name": "bottle.glb",
      "children": [
        6
      ]
    },
    {
      "matrix": [
        1,
        0,
        0,
        0,
        0,
        1,
        0,
        0,
        0,
        0,
        1,
        0,
        5.831777572631836,
        1.0039448738098145,
        -0.002025604248046875,
        1
      ],
      "name": "Bottle",
      "extras": {
        "name": "Bottle"
      }
    },
    {
      "name": "bottle.glb",
      "children": [
        8
      ]
    },
    {
      "matrix": [
        1,
        0,
        0,
        0,
        0,
        1,
        0,
        0,
        0,
        0,
        1,
        0,
        0.002716541290283203,
        0.6662095785140991,
        -0.002025604248046875,
        1
      ],
      "name": "Bottle",
      "extras": {
        "name": "Bottle"
      }
    },
    {
      "name": "bottle.glb",
      "children": [
        10
      ]
    },
    {
      "name": "plastic_bag.glb"
    },
    {
      "matrix": [
        0.7026515007019043,
        0,
        0,
        0,
        0,
        0.7026515007019043,
        0,
        0,
        0,
        0,
        0.7026515007019043,
        0,
        -0.32183247804641724,
        0.409595251083374,
        0.36707139015197754,
        1
      ],
      "name": "wine",
      "extras": {
        "name": "wine"
      }
    },
    {
      "name": "wine.glb",
      "children": [
        13
      ]
    },
    {
      "name": "tube.glb"
    },
    {
      "matrix": [
        0.35191524028778076,
        0,
        0,
        0,
        0,
        -0.0054941391674231095,
        -0.35187236612342204,
        0,
        0,
        0.35187236612342204,
        -0.0054941391674231095,
        0,
        0,
        0.24142417311668396,
        0.019579727202653885,
        1
      ],
      "name": "spray",
      "extras": {
        "name": "spray"
      }
    },
    {
      "name": "spray.glb",
      "children": [
        16
      ]
    },
    {
      "name": "net.glb"
    },
    {
      "name": "Cylinder001",
      "mesh": 0
    },
    {
      "name": "Cylinder001_1",
      "mesh": 1
    },
    {
      "name": "Cylinder001_2",
      "mesh": 2
    },
    {
      "matrix": [
        1,
        0,
        0,
        0,
        0,
        -1.3435885648505064e-7,
        1.0000001343588565,
        0,
        0,
        -1.0000001343588565,
        -1.3435885648505064e-7,
        0,
        -0.05562358349561691,
        0.29975342750549316,
        0.080144003033638,
        1
      ],
      "name": "can",
      "extras": {
        "name": "can"
      },
      "children": [
        19,
        20,
        21
      ]
    },
    {
      "name": "can.glb",
      "children": [
        22
      ]
    }
  ],
  "bufferViews": [
    {
      "buffer": 0,
      "byteOffset": 0,
      "byteLength": 4320,
      "target": 34962,
      "byteStride": 12
    },
    {
      "buffer": 0,
      "byteOffset": 4320,
      "byteLength": 4320,
      "target": 34962,
      "byteStride": 12
    },
    {
      "buffer": 0,
      "byteOffset": 8640,
      "byteLength": 2880,
      "target": 34962,
      "byteStride": 8
    },
    {
      "buffer": 0,
      "byteOffset": 11520,
      "byteLength": 1092,
      "target": 34963
    },
    {
      "buffer": 0,
      "byteOffset": 12612,
      "byteLength": 1536,
      "target": 34962,
      "byteStride": 12
    },
    {
      "buffer": 0,
      "byteOffset": 14148,
      "byteLength": 1536,
      "target": 34962,
      "byteStride": 12
    },
    {
      "buffer": 0,
      "byteOffset": 15684,
      "byteLength": 1024,
      "target": 34962,
      "byteStride": 8
    },
    {
      "buffer": 0,
      "byteOffset": 16708,
      "byteLength": 384,
      "target": 34963
    },
    {
      "buffer": 0,
      "byteOffset": 17092,
      "byteLength": 96,
      "target": 34962,
      "byteStride": 12
    },
    {
      "buffer": 0,
      "byteOffset": 17188,
      "byteLength": 96,
      "target": 34962,
      "byteStride": 12
    },
    {
      "buffer": 0,
      "byteOffset": 17284,
      "byteLength": 64,
      "target": 34962,
      "byteStride": 8
    },
    {
      "buffer": 0,
      "byteOffset": 17348,
      "byteLength": 36,
      "target": 34963
    }
  ],
  "buffers": [
    {
      "byteLength": 17384,
      "uri": "data:application/octet-stream;base64,"
    }
  ],
  "accessors": [
    {
      "bufferView": 0,
      "componentType": 5126,
      "count": 360,
      "max": [
        0.37291693687438965,
        0.5359311103820801,
        0.31212204694747925
      ],
      "min": [
        -0.34208944439888,
        -0.6819014549255371,
        -0.304950475692749
      ],
      "type": "VEC3"
    },
    {
      "bufferView": 1,
      "componentType": 5126,
      "count": 360,
      "max": [
        0.9011844992637634,
        0.9935241937637329,
        0.9261998534202576
      ],
      "min": [
        -0.9395899176597595,
        -0.9957131147384644,
        -0.9628314971923828
      ],
      "type": "VEC3"
    },
    {
      "bufferView": 2,
      "componentType": 5126,
      "count": 360,
      "max": [
        1,
        0.9900000095367432
      ],
      "min": [
        0,
        0
      ],
      "type": "VEC2"
    },
    {
      "bufferView": 3,
      "componentType": 5123,
      "count": 546,
      "max": [
        359
      ],
      "min": [
        0
      ],
      "type": "SCALAR"
    },
    {
      "bufferView": 4,
      "componentType": 5126,
      "count": 128,
      "max": [
        0.35828083753585815,
        0.47491171956062317,
        0.3064887821674347
      ],
      "min": [
        -0.3193819224834442,
        -0.6496838331222534,
        -0.1990235149860382
      ],
      "type": "VEC3"
    },
    {
      "bufferView": 5,
      "componentType": 5126,
      "count": 128,
      "max": [
        0.883513867855072,
        0.5063967108726501,
        0.9407126307487488
      ],
      "min": [
        -0.8286004066467285,
        -0.5667807459831238,
        -0.942528486251831
      ],
      "type": "VEC3"
    },
    {
      "bufferView": 6,
      "componentType": 5126,
      "count": 128,
      "max": [
        1,
        0.8398032784461975
      ],
      "min": [
        0,
        0.1666666865348816
      ],
      "type": "VEC2"
    },
    {
      "bufferView": 7,
      "componentType": 5123,
      "count": 192,
      "max": [
        127
      ],
      "min": [
        0
      ],
      "type": "SCALAR"
    },
    {
      "bufferView": 8,
      "componentType": 5126,
      "count": 8,
      "max": [
        0.18692877888679504,
        -0.38930320739746094,
        0.1704416573047638
      ],
      "min": [
        -0.27737462520599365,
        -0.6496838331222534,
        -0.13042080402374268
      ],
      "type": "VEC3"
    },
    {
      "bufferView": 9,
      "componentType": 5126,
      "count": 8,
      "max": [
        -0.0029000791255384684,
        0.7434202432632446,
        0.6688182353973389
      ],
      "min": [
        -0.0029000791255384684,
        0.7434202432632446,
        0.6688182353973389
      ],
      "type": "VEC3"
    },
    {
      "bufferView": 10,
      "componentType": 5126,
      "count": 8,
      "max": [
        0.3398033380508423,
        0.8398032784461975
      ],
      "min": [
        0.1601966917514801,
        0.6601967811584473
      ],
      "type": "VEC2"
    },
    {
      "bufferView": 11,
      "componentType": 5123,
      "count": 18,
      "max": [
        7
      ],
      "min": [
        0
      ],
      "type": "SCALAR"
    }
  ],
  "materials": [
    {
      "pbrMetallicRoughness": {
        "baseColorFactor": [
          0.21605348587036133,
          0.2193278670310974,
          0.2026565670967102,
          1
        ],
        "metallicFactor": 0,
        "roughnessFactor": 0.5
      },
      "doubleSided": true,
      "name": "Material.003"
    },
    {
      "pbrMetallicRoughness": {
        "baseColorFactor": [
          0.8003705143928528,
          0.08807404339313507,
          0.07761237770318985,
          1
        ],
        "metallicFactor": 0,
        "roughnessFactor": 0.5
      },
      "doubleSided": true,
      "name": "Material.004"
    },
    {
      "pbrMetallicRoughness": {
        "baseColorFactor": [
          0.0310153067111969,
          0.005918721668422222,
          0.003610643558204174,
          1
        ],
        "metallicFactor": 0,
        "roughnessFactor": 0.5
      },
      "doubleSided": true,
      "name": "Material.005"
    }
  ],
  "meshes": [
    {
      "primitives": [
        {
          "mode": 4,
          "attributes": {
            "POSITION": 0,
            "NORMAL": 1,
            "TEXCOORD_0": 2
          },
          "indices": 3,
          "material": 0
        }
      ]
    },
    {
      "primitives": [
        {
          "mode": 4,
          "attributes": {
            "POSITION": 4,
            "NORMAL": 5,
            "TEXCOORD_0": 6
          },
          "indices": 7,
          "material": 1
        }
      ]
    },
    {
      "primitives": [
        {
          "mode": 4,
          "attributes": {
            "POSITION": 8,
            "NORMAL": 9,
            "TEXCOORD_0": 10
          },
          "indices": 11,
          "material": 2
        }
      ]
    }
  ]
}