{
  "asset": {
    "version": "2.0",
    "generator": "THREE.GLTFExporter"
  },
  "scenes": [
    {
      "name": "Scene",
      "nodes": [
        2,
        5,
        7,
        9,
        11,
        12,
        14,
        15,
        17,
        19
      ]
    }
  ],
  "scene": 0,
  "nodes": [
    {
      "matrix": [
        1,
        0,
        0,
        0,
        0,
        1,
        0,
        0,
        0,
        0,
        1,
        0,
        0,
        1.0041860342025757,
        0,
        1
      ],
      "name": "Cylinder",
      "extras": {
        "name": "Cylinder"
      }
    },
    {
      "matrix": [
        1,
        0,
        0,
        0,
        0,
        1,
        0,
        0,
        0,
        0,
        1,
        0,
        5.831777572631836,
        1.0039448738098145,
        -0.002025604248046875,
        1
      ],
      "name": "Bottle",
      "extras": {
        "name": "Bottle"
      }
    },
    {
      "name": "bottle.glb",
      "children": [
        0,
        1
      ]
    },
    {
      "matrix": [
        1,
        0,
        0,
        0,
        0,
        1,
        0,
        0,
        0,
        0,
        1,
        0,
        0,
        1.0041860342025757,
        0,
        1
      ],
      "name": "Cylinder",
      "extras": {
        "name": "Cylinder"
      }
    },
    {
      "matrix": [
        1,
        0,
        0,
        0,
        0,
        1,
        0,
        0,
        0,
        0,
        1,
        0,
        5.831777572631836,
        1.0039448738098145,
        -0.002025604248046875,
        1
      ],
      "name": "Bottle",
      "extras": {
        "name": "Bottle"
      }
    },
    {
      "name": "bottle.glb",
      "children": [
        3,
        4
      ]
    },
    {
      "matrix": [
        1,
        0,
        0,
        0,
        0,
        1,
        0,
        0,
        0,
        0,
        1,
        0,
        5.831777572631836,
        1.0039448738098145,
        -0.002025604248046875,
        1
      ],
      "name": "Bottle",
      "extras": {
        "name": "Bottle"
      }
    },
    {
      "name": "bottle.glb",
      "children": [
        6
      ]
    },
    {
      "matrix": [
        1,
        0,
        0,
        0,
        0,
        1,
        0,
        0,
        0,
        0,
        1,
        0,
        5.831777572631836,
        1.0039448738098145,
        -0.002025604248046875,
        1
      ],
      "name": "Bottle",
      "extras": {
        "name": "Bottle"
      }
    },
    {
      "name": "bottle.glb",
      "children": [
        8
      ]
    },
    {
      "matrix": [
        1,
        0,
        0,
        0,
        0,
        1,
        0,
        0,
        0,
        0,
        1,
        0,
        0.002716541290283203,
        0.6662095785140991,
        -0.002025604248046875,
        1
      ],
      "name": "Bottle",
      "extras": {
        "name": "Bottle"
      }
    },
    {
      "name": "bottle.glb",
      "children": [
        10
      ]
    },
    {
      "name": "plastic_bag.glb"
    },
    {
      "matrix": [
        0.7026515007019043,
        0,
        0,
        0,
        0,
        0.7026515007019043,
        0,
        0,
        0,
        0,
        0.7026515007019043,
        0,
        -0.32183247804641724,
        0.409595251083374,
        0.36707139015197754,
        1
      ],
      "name": "wine",
      "extras": {
        "name": "wine"
      }
    },
    {
      "name": "wine.glb",
      "children": [
        13
      ]
    },
    {
      "name": "tube.glb"
    },
    {
      "matrix": [
        0.35191524028778076,
        0,
        0,
        0,
        0,
        -0.0054941391674231095,
        -0.35187236612342204,
        0,
        0,
        0.35187236612342204,
        -0.0054941391674231095,
        0,
        0,
        0.24142417311668396,
        0.019579727202653885,
        1
      ],
      "name": "spray",
      "extras": {
        "name": "spray"
      }
    },
    {
      "name": "spray.glb",
      "children": [
        16
      ]
    },
    {
      "matrix": [
        1,
        0,
        0,
        0,
        0,
        1,
        0,
        0,
        0,
        0,
        1,
        0,
        0.0019036531448364258,
        0.2585684657096863,
        -0.1537666916847229,
        1
      ],
      "name": "net",
      "extras": {
        "name": "net"
      },
      "mesh": 0
    },
    {
      "name": "net.glb",
      "children": [
        18
      ]
    }
  ],
  "bufferViews": [
    {
      "buffer": 0,
      "byteOffset": 0,
      "byteLength": 17760,
      "target": 34962,
      "byteStride": 12
    },
    {
      "buffer": 0,
      "byteOffset": 17760,
      "byteLength": 17760,
      "target": 34962,
      "byteStride": 12
    },
    {
      "buffer": 0,
      "byteOffset": 35520,
      "byteLength": 11840,
      "target": 34962,
      "byteStride": 8
    },
    {
      "buffer": 0,
      "byteOffset": 47360,
      "byteLength": 4440,
      "target": 34963
    }
  ],
  "buffers": [
    {
      "byteLength": 51800,
      "uri": "data:application/octet-stream;base64,"
    }
  ],
  "accessors": [
    {
      "bufferView": 0,
      "componentType": 5126,
      "count": 1480,
      "max": [
        1.87852942943573,
        0.1433081030845642,
        2.2138569355010986
      ],
      "min": [
        -1.9779753684997559,
        -0.2523314356803894,
        -1.9732524156570435
      ],
      "type": "VEC3"
    },
    {
      "bufferView": 1,
      "componentType": 5126,
      "count": 1480,
      "max": [
        0.9997326731681824,
        0.9997724890708923,
        0.9999967813491821
      ],
      "min": [
        -0.9996482729911804,
        -0.9998213648796082,
        -0.9999698400497437
      ],
      "type": "VEC3"
    },
    {
      "bufferView": 2,
      "componentType": 5126,
      "count": 1480,
      "max": [
        0.875,
        1
      ],
      "min": [
        0.1249999850988388,
        0
      ],
      "type": "VEC2"
    },
    {
      "bufferView": 3,
      "componentType": 5123,
      "count": 2220,
      "max": [
        1479
      ],
      "min": [
        0
      ],
      "type": "SCALAR"
    }
  ],
  "materials": [
    {
      "pbrMetallicRoughness": {
        "baseColorFactor": [
          0.03827748820185661,
          0.009310483001172543,
          0.0033261084463447332,
          1
        ],
        "metallicFactor": 0,
        "roughnessFactor": 0.75
      },
      "doubleSided": true,
      "name": "Material.002"
    }
  ],
  "meshes": [
    {
      "primitives": [
        {
          "mode": 4,
          "attributes": {
            "POSITION": 0,
            "NORMAL": 1,
            "TEXCOORD_0": 2
          },
          "indices": 3,
          "material": 0
        }
      ]
    }
  ]
}