{
	"asset":{
		"generator":"Khronos glTF Blender I/O v4.0.44",
		"version":"2.0"
	},
	"scene":0,
	"scenes":[
		{
			"name":"Scene",
			"nodes":[
				3,
				6
			]
		}
	],
	"nodes":[
		{
			"mesh":0,
			"name":"Cloud_0",
			"translation":[
				0,
				0,
				3.1304779052734375
			]
		},
		{
			"children":[
				0
			],
			"name":"Cloud",
			"scale":[
				0.8647299408912659,
				0.8647299408912659,
				0.8647299408912659
			]
		},
		{
			"children":[
				1
			],
			"name":"Root"
		},
		{
			"children":[
				2
			],
			"name":"Sketchfab_model.021",
			"rotation":[
				-0.5,
				-0.5,
				-0.5,
				0.5
			],
			"scale":[
				3.197368621826172,
				3.197368621826172,
				3.197368621826172
			],
			"translation":[
				0,
				15.803921699523926,
				0
			]
		},
		{
			"name":"Cloud.001",
			"scale":[
				0.8647299408912659,
				0.8647299408912659,
				0.8647299408912659
			]
		},
		{
			"children":[
				4
			],
			"name":"Root.001"
		},
		{
			"children":[
				5
			],
			"name":"Sketchfab_model.001",
			"rotation":[
				-0.5,
				-0.5,
				-0.5,
				0.5
			],
			"scale":[
				3.197368621826172,
				3.197368621826172,
				3.197368621826172
			],
			"translation":[
				0,
				15.803921699523926,
				0
			]
		}
	],
	"animations":[
		{
			"channels":[
				{
					"sampler":0,
					"target":{
						"node":3,
						"path":"translation"
					}
				},
				{
					"sampler":1,
					"target":{
						"node":3,
						"path":"rotation"
					}
				},
				{
					"sampler":2,
					"target":{
						"node":3,
						"path":"scale"
					}
				}
			],
			"name":"Sketchfab_model.021Action",
			"samplers":[
				{
					"input":3,
					"interpolation":"LINEAR",
					"output":4
				},
				{
					"input":3,
					"interpolation":"LINEAR",
					"output":5
				},
				{
					"input":3,
					"interpolation":"LINEAR",
					"output":6
				}
			]
		},
		{
			"channels":[
				{
					"sampler":0,
					"target":{
						"node":0,
						"path":"translation"
					}
				}
			],
			"name":"Cloud_0Action.001",
			"samplers":[
				{
					"input":7,
					"interpolation":"LINEAR",
					"output":8
				}
			]
		},
		{
			"channels":[
				{
					"sampler":0,
					"target":{
						"node":6,
						"path":"translation"
					}
				},
				{
					"sampler":1,
					"target":{
						"node":6,
						"path":"rotation"
					}
				},
				{
					"sampler":2,
					"target":{
						"node":6,
						"path":"scale"
					}
				}
			],
			"name":"Sketchfab_model.021Action.001",
			"samplers":[
				{
					"input":3,
					"interpolation":"LINEAR",
					"output":9
				},
				{
					"input":3,
					"interpolation":"LINEAR",
					"output":10
				},
				{
					"input":3,
					"interpolation":"LINEAR",
					"output":11
				}
			]
		}
	],
	"materials":[
		{
			"doubleSided":true,
			"name":"CloudMaterial",
			"pbrMetallicRoughness":{
				"metallicFactor":0,
				"roughnessFactor":0.6000000238418579
			}
		}
	],
	"meshes":[
		{
			"name":"Cloud_0",
			"primitives":[
				{
					"attributes":{
						"POSITION":0,
						"NORMAL":1
					},
					"indices":2,
					"material":0
				}
			]
		}
	],
	"accessors":[
		{
			"bufferView":0,
			"componentType":5126,
			"count":396,
			"max":[
				2.4904799461364746,
				1.1639599800109863,
				1.909850001335144
			],
			"min":[
				-2.6884400844573975,
				-1.1592199802398682,
				-1.0944900512695312
			],
			"type":"VEC3"
		},
		{
			"bufferView":1,
			"componentType":5126,
			"count":396,
			"type":"VEC3"
		},
		{
			"bufferView":2,
			"componentType":5123,
			"count":420,
			"type":"SCALAR"
		},
		{
			"bufferView":3,
			"componentType":5126,
			"count":1,
			"max":[
				0.125
			],
			"min":[
				0.125
			],
			"type":"SCALAR"
		},
		{
			"bufferView":4,
			"componentType":5126,
			"count":1,
			"type":"VEC3"
		},
		{
			"bufferView":5,
			"componentType":5126,
			"count":1,
			"type":"VEC4"
		},
		{
			"bufferView":6,
			"componentType":5126,
			"count":1,
			"type":"VEC3"
		},
		{
			"bufferView":7,
			"componentType":5126,
			"count":82,
			"max":[
				3.4166666666666665
			],
			"min":[
				0.041666666666666664
			],
			"type":"SCALAR"
		},
		{
			"bufferView":8,
			"componentType":5126,
			"count":82,
			"type":"VEC3"
		},
		{
			"bufferView":9,
			"componentType":5126,
			"count":1,
			"type":"VEC3"
		},
		{
			"bufferView":10,
			"componentType":5126,
			"count":1,
			"type":"VEC4"
		},
		{
			"bufferView":11,
			"componentType":5126,
			"count":1,
			"type":"VEC3"
		}
	],
	"bufferViews":[
		{
			"buffer":0,
			"byteLength":4752,
			"byteOffset":0,
			"target":34962
		},
		{
			"buffer":0,
			"byteLength":4752,
			"byteOffset":4752,
			"target":34962
		},
		{
			"buffer":0,
			"byteLength":840,
			"byteOffset":9504,
			"target":34963
		},
		{
			"buffer":0,
			"byteLength":4,
			"byteOffset":10344
		},
		{
			"buffer":0,
			"byteLength":12,
			"byteOffset":10348
		},
		{
			"buffer":0,
			"byteLength":16,
			"byteOffset":10360
		},
		{
			"buffer":0,
			"byteLength":12,
			"byteOffset":10376
		},
		{
			"buffer":0,
			"byteLength":328,
			"byteOffset":10388
		},
		{
			"buffer":0,
			"byteLength":984,
			"byteOffset":10716
		},
		{
			"buffer":0,
			"byteLength":12,
			"byteOffset":11700
		},
		{
			"buffer":0,
			"byteLength":16,
			"byteOffset":11712
		},
		{
			"buffer":0,
			"byteLength":12,
			"byteOffset":11728
		}
	],
	"buffers":[
		{
			"byteLength":11740,
			"uri":"cloud.bin"
		}
	]
}
