{
	"asset":{
		"generator":"Khronos glTF Blender I/O v4.0.44",
		"version":"2.0"
	},
	"scene":0,
	"scenes":[
		{
			"name":"Scene",
			"nodes":[
				0
			]
		}
	],
	"nodes":[
		{
			"mesh":0,
			"name":"Whale",
			"rotation":[
				0.7048138380050659,
				-0.05689848214387894,
				0.05689850449562073,
				0.7048138976097107
			],
			"scale":[
				0.009999997913837433,
				0.009999997913837433,
				0.009999999776482582
			]
		}
	],
	"materials":[
		{
			"doubleSided":true,
			"name":"Material",
			"pbrMetallicRoughness":{
				"baseColorFactor":[
					0.023169176653027534,
					0.023169176653027534,
					0.023169176653027534,
					1
				],
				"metallicFactor":0,
				"roughnessFactor":0.5
			}
		},
		{
			"doubleSided":true,
			"name":"Material.001",
			"pbrMetallicRoughness":{
				"baseColorFactor":[
					0.03122798353433609,
					0.047730885446071625,
					0.12350878119468689,
					1
				],
				"metallicFactor":0,
				"roughnessFactor":0.5
			}
		}
	],
	"meshes":[
		{
			"name":"WhaleMesh.001",
			"primitives":[
				{
					"attributes":{
						"POSITION":0,
						"NORMAL":1,
						"TEXCOORD_0":2
					},
					"indices":3,
					"material":0
				},
				{
					"attributes":{
						"POSITION":4,
						"NORMAL":5,
						"TEXCOORD_0":6
					},
					"indices":7,
					"material":1
				}
			]
		}
	],
	"accessors":[
		{
			"bufferView":0,
			"componentType":5126,
			"count":8,
			"max":[
				173.78497314453125,
				516.5919799804688,
				29.407882690429688
			],
			"min":[
				-191.91427612304688,
				474.70684814453125,
				10.087966918945312
			],
			"type":"VEC3"
		},
		{
			"bufferView":1,
			"componentType":5126,
			"count":8,
			"type":"VEC3"
		},
		{
			"bufferView":2,
			"componentType":5126,
			"count":8,
			"type":"VEC2"
		},
		{
			"bufferView":3,
			"componentType":5123,
			"count":12,
			"type":"SCALAR"
		},
		{
			"bufferView":4,
			"componentType":5126,
			"count":1179,
			"max":[
				369.7302551269531,
				955.5527954101562,
				202.0667724609375
			],
			"min":[
				-402.50482177734375,
				-1093.8463134765625,
				-172.09323120117188
			],
			"type":"VEC3"
		},
		{
			"bufferView":5,
			"componentType":5126,
			"count":1179,
			"type":"VEC3"
		},
		{
			"bufferView":6,
			"componentType":5126,
			"count":1179,
			"type":"VEC2"
		},
		{
			"bufferView":7,
			"componentType":5123,
			"count":1887,
			"type":"SCALAR"
		}
	],
	"bufferViews":[
		{
			"buffer":0,
			"byteLength":96,
			"byteOffset":0,
			"target":34962
		},
		{
			"buffer":0,
			"byteLength":96,
			"byteOffset":96,
			"target":34962
		},
		{
			"buffer":0,
			"byteLength":64,
			"byteOffset":192,
			"target":34962
		},
		{
			"buffer":0,
			"byteLength":24,
			"byteOffset":256,
			"target":34963
		},
		{
			"buffer":0,
			"byteLength":14148,
			"byteOffset":280,
			"target":34962
		},
		{
			"buffer":0,
			"byteLength":14148,
			"byteOffset":14428,
			"target":34962
		},
		{
			"buffer":0,
			"byteLength":9432,
			"byteOffset":28576,
			"target":34962
		},
		{
			"buffer":0,
			"byteLength":3774,
			"byteOffset":38008,
			"target":34963
		}
	],
	"buffers":[
		{
			"byteLength":41784,
			"uri":"whale.bin"
		}
	]
}
